<svg width="119" height="106" viewBox="0 0 119 106" fill="none" xmlns="http://www.w3.org/2000/svg">
<path d="M20.7976 37.4083C14.6976 27.3302 12.0137 16.5072 11.4342 12.3555L90.2224 93.8861C82.5104 90.4448 64.178 81.3037 52.5437 72.2699C38.001 60.9777 28.4225 50.006 20.7976 37.4083Z" fill="url(#paint0_linear_845_449)"/>
<path d="M20.3711 33.0827C17.7436 29.2302 12.7295 17.3113 11.4342 12.3555L90.2224 93.8861C84.8457 91.9522 63.7719 78.6744 53.9776 70.589C32.8678 53.1623 25.43 40.5003 20.3711 33.0827Z" fill="url(#paint1_linear_845_449)"/>
<path d="M62.5632 79.2578C47.9504 89.9516 41.7374 91.4266 32.1727 94.1886L109.412 11.4411C104.457 23.8735 98.8667 36.3093 89.8776 49.859C82.1091 61.569 69.7489 73.9992 62.5632 79.2578Z" fill="url(#paint2_linear_845_449)"/>
<path d="M54.2723 82.8209C48.3456 87.1317 39.9489 91.4936 32.1739 94.1885L109.412 11.4411C107.714 16.8966 95.443 38.8984 88.082 48.5411C71.2317 70.6145 62.2631 77.0087 54.2723 82.8209Z" fill="url(#paint3_linear_845_449)"/>
<defs>
<linearGradient id="paint0_linear_845_449" x1="50.6149" y1="12.1514" x2="51.0417" y2="94.0902" gradientUnits="userSpaceOnUse">
<stop stop-color="#7928CA"/>
<stop offset="1" stop-color="#0070F3"/>
</linearGradient>
<linearGradient id="paint1_linear_845_449" x1="50.6149" y1="12.1514" x2="51.0417" y2="94.0902" gradientUnits="userSpaceOnUse">
<stop stop-color="#7928CA"/>
<stop offset="1" stop-color="#0070F3"/>
</linearGradient>
<linearGradient id="paint2_linear_845_449" x1="70.578" y1="11.6434" x2="71.0069" y2="93.9863" gradientUnits="userSpaceOnUse">
<stop stop-color="#7928CA"/>
<stop offset="1" stop-color="#0070F3"/>
</linearGradient>
<linearGradient id="paint3_linear_845_449" x1="70.5786" y1="11.6434" x2="71.0075" y2="93.9862" gradientUnits="userSpaceOnUse">
<stop stop-color="#7928CA"/>
<stop offset="1" stop-color="#0070F3"/>
</linearGradient>
</defs>
</svg>
